PathFileType	4	(X/Y/Z)	C:/Users/beibeiliu/ov580/test_trc/User2\sequence.11_training_dense_right.trc
DataRate	CameraRate	NumFrames	NumMarkers	Units	OrigDataRate	OrigDataStartFrame	OrigNumFrames
120	120	14	19	mm	120	229	366
Frame#	Time	ThumbCMC			ThumbMCP			ThumbIP			ThumbTip			IndexMCP			IndexPIP			IndexTip			MiddleMCP			MiddlePIP			MiddleTip			RingMCP			RingPIP			RingTip			PinkyMCP			PinkyPIP			PinkyTip			BackHand1			BackHand2			BackHand3	
		X0	Y0	Z0	X1	Y1	Z1	X2	Y2	Z2	X3	Y3	Z3	X4	Y4	Z4	X5	Y5	Z5	X6	Y6	Z6	X7	Y7	Z7	X8	Y8	Z8	X9	Y9	Z9	X10	Y10	Z10	X11	Y11	Z11	X12	Y12	Z12	X13	Y13	Z13	X14	Y14	Z14	X15	Y15	Z15	X16	Y16	Z16	X17	Y17	Z17	X18	Y18	Z18	
228	1.9	63.6824	-48.4967	89.9599	54.5511	-75.2949	73.0654	58.4473	-95.7944	43.9596	67.9541	-110.407	22.3474	79.8729	-28.3626	10.8001	79.1765	-36.3066	-18.3043	84.5302	-59.4966	-44.1004	105.471	-16.0098	5.86884	107.461	-23.4158	-28.9901	113.039	-42.0611	-57.8948	125.626	-16.3161	13.2204	134.969	-19.4529	-18.9385	138.007	-33.3151	-47.3893	152.675	-21.9259	31.7189	160.364	-22.0295	6.66119	166.566	-23.1493	-21.1242	121.968	-8.14537	67.0619	119.725	-1.52733	97.7486	84.8849	-10.3847	78.2582	
229	1.90833	64.5646	-45.6486	98.8294	51.9854	-70.1437	80.5624	46.053	-90.3689	50.3701	53.0358	-103.892	28.323	69.1632	-20.6468	16.825	65.1026	-27.2154	-12.6496	69.2454	-49.4671	-40.5611	90.7549	-11.347	10.401	92.5176	-15.9541	-29.222	93.1033	-34.9331	-56.6455	116.143	-11.5321	10.0201	119.775	-14.687	-19.482	121.013	-25.6876	-44.2463	145.513	-21.4408	23.9316	148.114	-23.4598	-3.32557	154.816	-24.6929	-27.6502	123.152	-9.30582	63.6787	123.721	-3.65023	100.991	86.282	-8.47016	85.4001	
230	1.91667	69.2592	-41.7314	98.6784	50.8287	-64.7528	79.6133	40.7702	-82.8511	53.5034	45.3886	-92.2638	25.8645	60.5681	-11.0278	24.0872	54.4444	-14.5193	-4.63644	49.5812	-32.4075	-31.1825	87.4122	-1.65169	14.033	78.0621	-3.1536	-23.4451	75.8701	-17.5548	-50.4108	108.916	-5.32032	14.6395	109.863	-4.92011	-18.6377	104.112	-16.4986	-47.3776	137.865	-16.8846	21.0544	143.025	-16.445	-6.0225	144.165	-17.6037	-27.2761	124.32	-6.92972	68.0589	130.949	-3.77849	100.592	88.7699	-8.04806	90.5504	
231	1.925	67.5878	-40.2902	101.257	48.0178	-60.7515	79.0204	36.1409	-76.912	52.5904	41.9996	-84.2382	24.5568	58.6772	-3.70661	27.1074	47.8173	-6.00505	-5.907	47.7889	-21.9183	-32.4572	88.1863	5.56957	14.4913	78.0104	6.52745	-21.9057	76.7175	-5.88985	-50.1254	109.675	1.17368	14.9992	108.454	4.10457	-13.8557	106.419	-5.40837	-43.8307	141.875	-11.5231	23.8848	144.562	-9.55612	-6.78684	141.994	-7.688	-29.6213	123.82	-3.52137	67.8973	131.796	-1.60746	97.6763	93.8392	-3.93535	88.7421	
232	1.93333	73.8469	-36.1242	97.9489	54.6791	-56.8231	75.6998	41.6515	-72.2029	43.5429	44.6621	-83.2542	18.1176	69.063	0.619772	18.8485	60.8844	-2.84905	-10.9702	58.8087	-18.1616	-36.2471	97.1691	8.96039	8.76545	91.6485	9.79378	-22.9014	89.9813	-7.29791	-58.5341	123.521	3.33764	10.9795	119.219	3.81423	-20.1628	115.926	-6.41114	-48.2066	147.049	-11.0187	22.705	152.603	-9.38156	-6.92336	153.438	-11.8682	-27.8518	131.342	-2.77455	63.2091	138.377	-2.67648	100.484	94.7236	-2.37082	88.8266	
233	1.94167	76.8044	-34.3545	91.6841	57.4974	-56.9217	69.7301	49.155	-75.3433	38.5942	51.7742	-89.9002	17.2144	81.9285	-6.41237	13.6396	76.0441	-10.7671	-21.0743	76.5773	-28.2507	-41.6466	108.133	2.37179	5.77328	108.478	-0.827236	-29.7017	108.928	-20.7082	-61.9571	135.893	-4.85775	9.56561	140.331	-6.35794	-19.7545	138.794	-20.6754	-50.7101	159.381	-20.631	25.901	169.447	-20.4747	-6.15756	173.903	-25.245	-27.0387	139.473	-5.71246	65.7903	139.981	-1.35076	94.5455	105.16	-1.88504	81.5764	
234	1.95	80.9219	-35.7108	88.0851	65.1718	-60.6372	65.704	56.2371	-84.3163	39.6182	64.6354	-98.8794	19.6439	95.7208	-17.5326	2.28216	92.2488	-27.4046	-26.3249	88.5411	-49.9548	-47.6575	123.606	-12.0585	1.22343	124.301	-19.1248	-33.1633	127.486	-44.9366	-62.0058	146.69	-17.7207	7.51383	154.448	-23.1766	-20.8264	152.816	-43.5134	-51.0629	171.539	-31.1788	26.068	177.607	-35.1567	-0.448413	184.108	-43.219	-23.6197	145.334	-10.295	60.5069	144.529	-3.2818	91.4248	110.703	-5.35174	74.0037	
235	1.95833	82.5239	-37.6938	84.2283	65.5232	-63.8871	71.1311	56.6531	-90.6975	45.4295	62.9501	-109.318	27.3315	95.4896	-29.4063	3.36688	91.5553	-41.4618	-26.8168	96.6922	-62.9163	-43.6444	126.218	-24.0877	-1.86015	129.266	-37.4042	-37.0301	131.911	-61.1767	-57.8804	151.373	-31.3313	8.5577	159.226	-39.7341	-20.0369	158.293	-60.7369	-45.0609	169.66	-41.9842	26.0843	185.491	-51.8814	-1.35266	189.893	-61.717	-20.0885	145.122	-16.2207	59.4602	147.5	-6.50814	88.6017	113.058	-7.80056	69.9819	
236	1.96667	82.791	-36.2345	89.1465	63.9849	-61.5146	77.9566	55.7301	-87.384	51.1977	62.1024	-106.213	30.9266	96.2812	-30.0178	7.13103	86.9541	-41.8341	-21.2666	84.4312	-66.6928	-42.202	124.314	-27.7796	0.397481	123.16	-39.2275	-32.2774	125.683	-68.5622	-58.2472	149.524	-36.6953	5.75985	153.928	-46.0701	-20.1951	148.598	-66.7429	-43.0592	168.012	-48.5038	21.7794	175.708	-60.4936	-1.15396	181.056	-72.6923	-25.356	151.161	-22.8918	59.1312	150.623	-11.1583	92.4769	115.608	-10.9261	71.7816	
237	1.975	82.5169	-33.099	93.991	59.4023	-56.4826	79.984	49.3119	-78.4625	54.5357	54.4297	-96.4616	33.5863	93.4994	-21.3806	13.6104	86.4662	-30.171	-15.2609	80.0735	-54.8767	-40.5807	121.165	-20.0843	1.7063	118.548	-31.0195	-32.1088	114.429	-56.2005	-57.574	144.095	-31.9908	5.53636	143.384	-40.6041	-19.5818	139.703	-60.8257	-43.5806	164.524	-48.5102	22.8986	173.238	-60.157	-3.41586	171.036	-72.6934	-25.6283	147.018	-20.0898	60.5022	151.486	-11.9992	92.5408	117.044	-7.11407	78.8694	
238	1.98333	85.6533	-29.7928	100.611	62.0853	-49.401	80.817	43.4871	-68.2222	55.1478	46.5444	-84.2359	32.1713	94.423	-9.99338	17.5223	80.9641	-12.4869	-9.85193	75.4093	-32.9465	-35.1932	120.911	-9.18929	8.28898	117.949	-16.5221	-30.0851	110.657	-34.4262	-54.2349	142.215	-23.1644	10.0918	142.908	-29.8715	-18.4405	132.932	-50.5365	-47.0502	164.924	-44.0159	23.2379	166.28	-51.1686	-2.56551	165.26	-61.673	-28.3766	148.205	-17.5352	66.1725	156.904	-16.132	97.8932	118.196	-4.60725	82.7587	
239	1.99167	83.6752	-27.0267	97.5886	63.5354	-42.6421	80.3625	44.905	-58.613	53.4555	47.7779	-71.8686	24.3811	94.5368	0.6378	23.0835	87.3124	0.156321	-7.12965	78.7639	-16.5939	-34.4183	125.204	-1.33229	12.1491	124.067	-2.67981	-22.9804	111.692	-18.9055	-53.7423	147.353	-16.4113	10.6367	145.675	-21.5792	-18.7347	135.992	-38.3499	-46.1595	165.82	-40.0711	27.2385	166.309	-45.3569	-1.41862	167.017	-57.7596	-29.2471	149.051	-17.9106	65.7656	155.136	-15.7927	98.8815	122.217	-4.37681	88.7733	
240	2	90.3847	-25.5569	96.27	61.8902	-38.8606	75.239	48.7353	-52.6002	49.0553	47.311	-66.3913	23.0112	106.142	4.33608	18.9008	98.8889	3.80585	-12.5603	89.7665	-10.3925	-34.725	134.783	0.97976	11.341	131.854	0.770439	-21.4216	121.789	-15.5117	-55.3196	153.175	-15.6209	14.4797	152.18	-18.7606	-17.1722	143.384	-31.4235	-41.1808	172.769	-38.4788	25.3792	172.174	-43.9966	-0.647959	168.637	-56.7654	-24.8847	157.4	-18.9942	71.4016	162.529	-17.6153	105.217	127.003	-2.15847	87.3808	
241	2.00833	92.1468	-23.5585	92.7392	65.3114	-38.1828	70.3901	52.8473	-51.638	42.826	55.9892	-66.1259	17.7091	113.103	0.124984	17.5082	108.656	0.265772	-12.4245	99.123	-16.1593	-37.8914	141.879	-4.28599	10.9409	141.059	-5.66665	-23.8832	139.126	-25.5804	-52.708	160.703	-21.1626	14.715	161.965	-26.8925	-17.1087	155.307	-43.2597	-40.7757	175.566	-44.7278	29.7699	178.154	-52.9544	0.86617	173.248	-68.8689	-25.4946	160.77	-20.5509	71.6539	161.334	-20.1476	104.097	130.966	-3.93249	84.1424	
